<?xml version="1.0" encoding="utf-8"?>
<!-- Generator: Adobe Illustrator 25.1.0, SVG Export Plug-In . SVG Version: 6.00 Build 0)  -->
<svg version="1.1" id="Layer_1" xmlns="http://www.w3.org/2000/svg" xmlns:xlink="http://www.w3.org/1999/xlink" x="0px" y="0px"
	 viewBox="0 0 158.8 161" style="enable-background:new 0 0 158.8 161;" xml:space="preserve">
<style type="text/css">
	.st0{fill-rule:evenodd;clip-rule:evenodd;fill:#FFFFFF;}
</style>
<path class="st0" d="M86.6,5.2c0-1.1,0.9-2.1,2-2.3c0,0,13.6-2,14.8-2.1c1.4-0.2,3.2,0.8,3.2,2.7v44.2c3.2-3.1,6.8-5.6,10.7-7.5
	c3.9-1.9,8.4-2.9,13.7-2.9c4.5,0,8.5,0.8,12,2.3c3.5,1.5,6.4,3.7,8.8,6.5c2.3,2.8,4.1,6.2,5.3,10c1.2,3.9,1.8,8.2,1.8,12.9v51.4
	c0,1.1-0.9,2-2,2h-15.9c-1.1,0-2-0.9-2-2V69.2c0-5.1-1.2-9.1-3.5-11.9c-2.3-2.8-5.9-4.2-10.5-4.2c-3.4,0-6.7,0.8-9.7,2.4
	c-3,1.6-5.9,3.7-8.6,6.5v58.6c0,1.1-0.9,2-2,2H88.6c-1.1,0-2-0.9-2-2L86.6,5.2L86.6,5.2z M75.7,37.5c-6.7,0.8-11.5,4-14.6,6.9
	c-6.1-4.8-14.5-7.1-23.9-7.1c-19,0-33.8,9.3-33.8,29.4C3.4,78.3,8.3,86.3,16,91c-5.7,2.8-9.6,8.6-9.6,14.3c0,9.6,7.5,12.6,7.5,12.6
	s-13.1,6.4-13.1,19.3c0,16.5,15,23.2,33.3,23.2c26.4,0,44.6-11,44.6-31.3c0-12.5-9.4-19.4-30-20.2c-12.2-0.5-20.1-0.9-22.1-1.6
	c-2.6-0.9-3.9-3-3.9-5.3c0-2.6,2.1-5,5.3-6.7c2.9,0.5,5.9,0.8,9,0.8c19,0,33.8-9.2,33.8-29.4c0-4.9-0.9-9.2-2.5-12.8
	c2.8-1.5,8.3-2.2,8.3-2.2c1.1-0.2,2-1.2,2-2.3v-9.1C78.8,38.4,77.2,37.3,75.7,37.5L75.7,37.5z M26.5,122.6c0,0,10,0.4,19.9,0.8
	c11.2,0.5,14.7,3,14.7,8.8c0,7.1-9.7,14.1-23.3,14.1c-12.9,0-19.3-4.5-19.3-12.1C18.5,130,20.8,125.1,26.5,122.6L26.5,122.6z
	 M37.2,82.1c-9,0-16-4.8-16-15.3c0-10.5,7-15.3,16-15.3c9,0,16,4.8,16,15.3S46.2,82.1,37.2,82.1z"/>
</svg>
